<svg width="21" height="20" fill="none" xmlns="http://www.w3.org/2000/svg"><path d="M10.38 6.665A3.342 3.342 0 007.044 10a3.342 3.342 0 003.334 3.335A3.342 3.342 0 0013.714 10a3.342 3.342 0 00-3.335-3.335zM20.38 10c0-1.38.013-2.75-.065-4.128-.078-1.6-.443-3.022-1.613-4.193C17.529.506 16.11.143 14.51.066 13.129-.012 11.76 0 10.382 0 9 0 7.632-.012 6.254.066 4.653.143 3.232.509 2.061 1.679.888 2.853.525 4.271.448 5.872.37 7.253.383 8.622.383 10c0 1.378-.013 2.75.065 4.128.077 1.6.442 3.022 1.613 4.193 1.174 1.173 2.592 1.536 4.193 1.613 1.381.078 2.75.065 4.128.065 1.38 0 2.75.013 4.128-.065 1.6-.077 3.022-.443 4.193-1.613 1.173-1.174 1.535-2.592 1.613-4.193.08-1.379.065-2.747.065-4.128zM10.38 15.131A5.124 5.124 0 015.25 10a5.124 5.124 0 015.13-5.131A5.124 5.124 0 0115.51 10a5.124 5.124 0 01-5.13 5.131zm5.341-9.274a1.197 1.197 0 01-1.198-1.198c0-.663.535-1.198 1.198-1.198a1.197 1.197 0 01.848 2.046 1.197 1.197 0 01-.848.35z" fill="#333"/></svg>
