<svg width="25" height="20" fill="none" xmlns="http://www.w3.org/2000/svg"><path d="M25 2.376c-.905.39-1.89.671-2.905.78a5.033 5.033 0 002.219-2.78 9.96 9.96 0 01-3.201 1.219A5.033 5.033 0 0017.426 0a5.044 5.044 0 00-5.044 5.047c0 .39.047.781.124 1.157A14.337 14.337 0 012.104.924a5.01 5.01 0 00-.687 2.546c0 1.752.89 3.296 2.249 4.205a5.089 5.089 0 01-2.281-.642v.062a5.046 5.046 0 004.044 4.952 5.34 5.34 0 01-1.328.172c-.329 0-.64-.033-.953-.077.64 2 2.5 3.453 4.716 3.5a10.111 10.111 0 01-6.263 2.157c-.423 0-.814-.015-1.22-.062A14.286 14.286 0 008.132 20c9.277 0 14.354-7.686 14.354-14.358 0-.219 0-.438-.014-.657A10.867 10.867 0 0025 2.375z" fill="#333"/></svg>
